# xmcd
#
# Track frame offsets: 
#        150
#        17369
#        34809
#        51509
#        70510
#        89499
#        109488
#        122420
#        144641
#        162917
#        175546
#        192299
#        210096
#        243752
#
# Disc length: 3695 seconds
#
# Revision: 0
# Processed by: cddbd v1.5.2PL0 Copyright (c) Steve Scherf et al.
# Submitted via: ExactAudioCopy v1.3
#
DISCID=b20e6d0e
DTITLE=Mick Kolassa and Friends - Double Standards
DYEAR=2018
DGENRE=Blues
TTITLE0=Mick Kolassa and Sugaray Rayford - 600 Pounds Of Heavenly Joy
TTITLE1=Mick Kolassa and Heather Crosse - I Just Want To Make Love To 
TTITLE1=You
TTITLE2=Mick Kolassa and Victor Wainwright - It's Tight Like That
TTITLE3=Mick Kolassa and Annika Chambers - Fever
TTITLE4=Mick Kolassa and Tas Cru - Nobody Knows You When You're Down A
TTITLE4=nd Out
TTITLE5=Mick Kolassa and Tullie Brae - Rock Me Baby
TTITLE6=Mick Kolassa and Eric Hughes - Key To The Highway
TTITLE7=Mick Kolassa and Erica Brown - Spoonful
TTITLE8=Mick Kolassa and Patti Parks - It Hurts Me To
TTITLE9=Mick Kolassa and David Dunavent - Early In The Morning
TTITLE10=Mick Kolassa and Gracie Curran - Don't You Lie To Me
TTITLE11=Mick Kolassa and Jeff Jensen - Outside Woman Blues
TTITLE12=Mick Kolassa and All Of The Above - Ain't Nobody's Business
TTITLE13=Mick Kolassa and Jeff Jensen - Baby's Got Another Lover
EXTD=
EXTT0=
EXTT1=
EXTT2=
EXTT3=
EXTT4=
EXTT5=
EXTT6=
EXTT7=
EXTT8=
EXTT9=
EXTT10=
EXTT11=
EXTT12=
EXTT13=
PLAYORDER=
